The Tall Man.2012.HDRip.XviD.HS.avi
Format                                   : AVI
Format/Info                              : Audio Video Interleave
File size                                : 1 007 MiB
Duration                                 : 1h 45mn
Overall bit rate                         : 1 328 Kbps
Writing application                      : Lavf52.103.0

Video
ID                                       : 1
Format                                   : MPEG-4 Visual
Format profile                           : Simple@L1
Format settings, BVOP                    : No
Format settings, QPel                    : No
Format settings, GMC                     : No warppoints
Format settings, Matrix                  : Default (H.263)
Codec ID                                 : FMP4
Duration                                 : 1h 45mn
Bit rate                                 : 1 187 Kbps
Width                                    : 640 pixels
Height                                   : 266 pixels
Display aspect ratio                     : 2.40:1
Frame rate                               : 23.976 fps
Color space                              : YUV
Chroma subsampling                       : 4:2:0
Bit depth                                : 8 bits
Scan type                                : Progressive
Compression mode                         : Lossy
Bits/(Pixel*Frame)                       : 0.291
Stream size                              : 900 MiB (89%)
Writing library                          : Lavc52.116.0

Audio
ID                                       : 0
Format                                   : MPEG Audio
Format version                           : Version 1
Format profile                           : Layer 3
Mode                                     : Joint stereo
Mode extension                           : MS Stereo
Codec ID                                 : 55
Codec ID/Hint                            : MP3
Duration                                 : 1h 45mn
Bit rate mode                            : Constant
Bit rate                                 : 128 Kbps
Channel(s)                               : 2 channels
Sampling rate                            : 48.0 KHz
Compression mode                         : Lossy
Stream size                              : 97.0 MiB (10%)
Alignment                                : Aligned on interleaves
Interleave, duration                     : 42 ms (1.00 video frame)
Writing library                          : LAME3.98.4
